<svg width="491" height="110" viewBox="0 0 491 110" fill="none" xmlns="http://www.w3.org/2000/svg">
<g filter="url(#filter0_i_204_23)">
<path d="M36.1934 27.1429C36.3916 27.1429 36.6182 27.3836 36.873 27.8651C37.1279 28.3465 37.3687 28.9129 37.5952 29.5643C37.8501 30.1874 38.0767 30.8246 38.2749 31.4759C38.5015 32.099 38.6714 32.5663 38.7847 32.8778C39.4077 34.7186 40.1016 36.8001 40.8662 39.1224C41.6309 41.4447 42.438 43.9227 43.2876 46.5565C44.1655 49.1903 45.0718 51.9374 46.0063 54.7977C46.9692 57.6297 47.918 60.4759 48.8525 63.3363C49.8154 66.1683 50.7642 68.972 51.6987 71.7474C52.6333 74.5228 53.5254 77.1708 54.375 79.6913C55.2246 82.1834 56.0176 84.4916 56.7539 86.6156C57.5186 88.7113 58.1982 90.5379 58.793 92.0956C59.4727 93.9364 60.1382 95.409 60.7896 96.5135C61.4409 97.618 62.1348 98.4959 62.8711 99.1473C63.6074 99.7987 64.4146 100.28 65.2925 100.592C66.1987 100.903 67.2324 101.186 68.3936 101.441C69.2432 101.611 69.668 101.923 69.668 102.376C69.668 102.687 69.5122 102.9 69.2007 103.013C68.8892 103.126 68.5352 103.183 68.1387 103.183C67.5156 103.183 66.7227 103.169 65.7598 103.14C64.7969 103.112 63.6924 103.098 62.4463 103.098C61.4551 103.098 60.3789 103.112 59.2178 103.14C58.085 103.197 56.9097 103.268 55.6919 103.353C53.7944 103.494 52.0386 103.721 50.4243 104.033C48.8101 104.372 47.3516 104.698 46.0488 105.01C44.7461 105.349 43.5991 105.647 42.6079 105.902C41.645 106.157 40.8662 106.284 40.2715 106.284C39.96 106.284 39.7051 106.199 39.5068 106.029C39.3369 105.888 39.252 105.689 39.252 105.434C39.252 105.066 39.3511 104.769 39.5493 104.542C39.7476 104.316 40.1299 104.118 40.6963 103.948C40.9229 103.891 41.2485 103.806 41.6733 103.693C42.0981 103.579 42.5654 103.452 43.0752 103.31C43.585 103.169 44.1089 102.999 44.647 102.801C45.2134 102.631 45.7231 102.432 46.1763 102.206C46.7427 101.894 47.2524 101.484 47.7056 100.974C48.1587 100.464 48.3853 99.6854 48.3853 98.6376C48.3853 98.411 48.3569 98.0995 48.3003 97.703C48.272 97.3065 48.2153 96.9525 48.1304 96.641C47.6206 94.6585 47.0967 92.6478 46.5586 90.6087C46.0205 88.5697 45.4824 86.6297 44.9443 84.7889C44.4062 82.9481 43.8965 81.2489 43.415 79.6913C42.9336 78.1336 42.4946 76.8592 42.0981 75.868C41.4468 74.2254 40.6963 72.9793 39.8467 72.1297C38.9971 71.2518 38.0625 70.5721 37.043 70.0907C36.7598 69.9774 36.2925 69.7933 35.6411 69.5384C34.9897 69.2835 34.2109 69.0145 33.3047 68.7313C32.4268 68.4198 31.478 68.0941 30.4585 67.7542C29.439 67.4144 28.4336 67.0887 27.4424 66.7772C26.4512 66.4374 25.5166 66.14 24.6387 65.8851C23.7891 65.6019 23.0811 65.3612 22.5146 65.1629C21.835 67.3436 21.1553 69.5101 20.4756 71.6625C19.8242 73.7865 19.2153 75.7547 18.6489 77.5672C18.1108 79.3514 17.6294 80.9232 17.2046 82.2826C16.8081 83.6419 16.5249 84.6332 16.355 85.2562C16.1284 85.9925 15.9727 86.6581 15.8877 87.2528C15.8027 87.8475 15.7603 88.3714 15.7603 88.8246C15.7603 89.6459 15.8735 90.3397 16.1001 90.9061C16.355 91.4442 16.6807 91.9115 17.0771 92.308C17.4736 92.6761 17.9268 93.0018 18.4365 93.285C18.9746 93.5399 19.5269 93.7948 20.0933 94.0497C20.5747 94.2762 20.9995 94.5311 21.3677 94.8143C21.7358 95.0692 21.9199 95.3949 21.9199 95.7914C21.9199 96.0462 21.8066 96.2728 21.5801 96.471C21.3818 96.641 21.0562 96.7259 20.603 96.7259C20.1216 96.7259 19.5127 96.6126 18.7764 96.3861C18.04 96.1595 17.2188 95.8763 16.3125 95.5365C15.4346 95.1966 14.5 94.8426 13.5088 94.4745C12.5176 94.078 11.5264 93.724 10.5352 93.4125C9.74219 93.1859 8.9209 92.9876 8.07129 92.8177C7.22168 92.6195 6.40039 92.4637 5.60742 92.3504C4.81445 92.2372 4.09229 92.1522 3.44092 92.0956C2.81787 92.0106 2.33643 91.954 1.99658 91.9256C1.28857 91.869 0.778809 91.7699 0.467285 91.6283C0.155762 91.4867 0 91.2176 0 90.8211C0 90.5379 0.0849609 90.3114 0.254883 90.1415C0.453125 89.9432 0.778809 89.8441 1.23193 89.8441C1.40186 89.8441 1.69922 89.8583 2.12402 89.8866C2.57715 89.9149 3.08691 89.9291 3.65332 89.9291C5.0127 89.9291 6.14551 89.8441 7.05176 89.6742C7.95801 89.5042 8.72266 89.2352 9.3457 88.867C9.96875 88.4989 10.4785 88.0458 10.875 87.5077C11.2998 86.9413 11.6821 86.2757 12.022 85.5111C12.3618 84.7748 12.7725 83.7977 13.2539 82.5799C13.7354 81.3338 14.2451 79.9886 14.7832 78.5443C15.3496 77.0716 15.916 75.5565 16.4824 73.9989C17.0488 72.4129 17.5728 70.9261 18.0542 69.5384C18.564 68.1224 19.0029 66.8763 19.3711 65.8001C19.7393 64.6957 20.0083 63.8744 20.1782 63.3363C20.4048 62.6 20.7163 61.5946 21.1128 60.3202C21.5376 59.0174 22.0049 57.5731 22.5146 55.9872C23.0244 54.4012 23.5342 52.7586 24.0439 51.0594C24.582 49.3319 25.0635 47.6893 25.4883 46.1317C25.9414 44.5458 26.2954 43.1156 26.5503 41.8412C26.8335 40.5384 26.9751 39.5189 26.9751 38.7826C26.9751 38.2162 26.8193 37.7489 26.5078 37.3807C26.1963 36.9842 25.6865 36.786 24.9785 36.786C24.3555 36.786 23.6475 36.8285 22.8545 36.9134C22.0898 36.9984 21.311 37.0834 20.5181 37.1683C19.7251 37.2533 18.9463 37.3382 18.1816 37.4232C17.4453 37.5082 16.8081 37.5506 16.27 37.5506C15.2222 37.5506 14.6982 37.1825 14.6982 36.4461C14.6982 35.7665 15.1938 35.3841 16.1851 35.2992C16.8647 35.2709 17.6294 35.2001 18.479 35.0868C19.3569 34.9735 20.2773 34.8177 21.2402 34.6195C22.2031 34.4212 23.166 34.1805 24.1289 33.8973C25.1201 33.5858 26.0688 33.2176 26.9751 32.7928C28.4194 32.1415 29.6514 31.4759 30.6709 30.7962C31.6904 30.1166 32.5542 29.5077 33.2622 28.9696C33.9985 28.4315 34.5933 27.9925 35.0464 27.6527C35.5278 27.3128 35.9102 27.1429 36.1934 27.1429ZM23.2368 62.869C24.1147 63.1805 25.2334 63.577 26.5928 64.0584C27.9805 64.5116 29.3823 64.9647 30.7983 65.4178C32.2144 65.8426 33.5171 66.2108 34.7065 66.5223C35.9243 66.8338 36.8022 66.9896 37.3403 66.9896C37.6802 66.9896 37.9775 66.8763 38.2324 66.6498C38.4873 66.3949 38.6147 66.0126 38.6147 65.5028C38.6147 65.078 38.4873 64.3133 38.2324 63.2088C37.9775 62.076 37.6519 60.8016 37.2554 59.3856C36.8872 57.9413 36.4766 56.4403 36.0234 54.8827C35.5703 53.2967 35.1455 51.8382 34.749 50.5072C34.3525 49.1761 34.0127 48.0716 33.7295 47.1937C33.4746 46.2875 33.333 45.7777 33.3047 45.6644C33.1914 45.3246 33.0356 44.8431 32.8374 44.2201C32.6675 43.5687 32.4692 42.9315 32.2427 42.3084C32.0444 41.6854 31.832 41.1473 31.6055 40.6942C31.4072 40.2411 31.2515 40.0145 31.1382 40.0145C31.0249 40.0145 30.8691 40.1703 30.6709 40.4818C30.501 40.7933 30.3169 41.1756 30.1187 41.6288C29.9204 42.0536 29.7222 42.5209 29.5239 43.0306C29.3257 43.5404 29.1699 44.0077 29.0566 44.4325L23.2368 62.869ZM83.1768 107.941C81.7324 107.941 80.2598 107.997 78.7588 108.111C77.2578 108.224 75.8135 108.351 74.4258 108.493C73.0664 108.663 71.8203 108.805 70.6875 108.918C69.5547 109.031 68.6201 109.088 67.8838 109.088C67.3174 109.088 66.9351 108.989 66.7368 108.79C66.5103 108.592 66.397 108.337 66.397 108.026C66.397 107.346 66.8926 107.006 67.8838 107.006C69.1016 107.006 70.1211 106.907 70.9424 106.709C71.7637 106.539 72.4858 106.341 73.1089 106.114C74.3833 105.633 75.3745 104.925 76.0825 103.99C76.7905 103.056 77.3003 102.008 77.6118 100.847C77.9233 99.6854 78.1074 98.4535 78.1641 97.1507C78.2207 95.848 78.249 94.6019 78.249 93.4125C78.249 91.7699 78.2349 89.9715 78.2065 88.0174C78.2065 86.035 78.1782 83.9959 78.1216 81.9002C78.0933 79.7762 78.0649 77.6522 78.0366 75.5282C78.0083 73.3758 77.9658 71.3084 77.9092 69.326C77.8809 67.3153 77.8384 65.4461 77.7817 63.7186C77.7534 61.9627 77.7251 60.4334 77.6968 59.1307C77.6685 57.4881 77.6401 55.704 77.6118 53.7782C77.5835 51.8524 77.541 49.8983 77.4844 47.9159C77.4561 45.9051 77.4136 43.9085 77.3569 41.9261C77.3286 39.9437 77.272 38.0887 77.187 36.3612C77.1304 34.6336 77.0596 33.0902 76.9746 31.7308C76.8896 30.3431 76.7905 29.2386 76.6772 28.4173C76.5073 27.2562 76.21 26.3216 75.7852 25.6136C75.3604 24.9056 74.8647 24.3675 74.2983 23.9994C73.7603 23.6029 73.1514 23.348 72.4717 23.2347C71.8203 23.0931 71.1548 23.0223 70.4751 23.0223C69.4839 23.0223 68.436 23.1073 67.3315 23.2772C66.2271 23.4188 65.2217 23.4896 64.3154 23.4896C63.5791 23.4896 63.0552 23.4046 62.7437 23.2347C62.4038 23.0365 62.2339 22.7391 62.2339 22.3426C62.2339 22.0028 62.3613 21.7337 62.6162 21.5355C62.8711 21.3373 63.1685 21.1957 63.5083 21.1107C64.981 20.7992 66.3403 20.4876 67.5864 20.1761C68.8042 19.8646 69.937 19.5389 70.9849 19.1991C72.0327 18.8309 73.0098 18.4344 73.916 18.0096C74.8506 17.5848 75.771 17.0892 76.6772 16.5228C77.6685 15.8998 78.5039 15.2484 79.1836 14.5687C79.8916 13.889 80.4863 13.2801 80.9678 12.742C81.4775 12.204 81.9023 11.765 82.2422 11.4251C82.6104 11.057 82.9502 10.8729 83.2617 10.8729C83.6582 10.8729 83.9131 11.0711 84.0264 11.4676C84.168 11.8358 84.2388 12.2181 84.2388 12.6146C84.2388 13.0677 84.2246 13.6766 84.1963 14.4413C84.168 15.1776 84.1396 15.9847 84.1113 16.8626C84.083 17.7406 84.0547 18.6327 84.0264 19.5389C83.998 20.4168 83.9839 21.2098 83.9839 21.9178C83.9839 23.0223 83.998 24.5375 84.0264 26.4632C84.083 28.389 84.1396 30.5697 84.1963 33.0052C84.2812 35.4125 84.3662 37.9896 84.4512 40.7367C84.5361 43.4837 84.6211 46.2308 84.7061 48.9779C84.8193 51.725 84.9185 54.4012 85.0034 57.0067C85.1167 59.5838 85.2158 61.9344 85.3008 64.0584C85.4141 66.1542 85.5132 67.9383 85.5981 69.411C85.6831 70.8553 85.7539 71.8182 85.8105 72.2997C86.9434 71.1102 87.9487 70.0765 88.8267 69.1986C89.7046 68.3207 90.5117 67.4852 91.248 66.6922C91.9844 65.8709 92.7065 65.0497 93.4146 64.2284C94.1509 63.3788 94.9438 62.4159 95.7935 61.3397C96.2749 60.6883 96.6289 60.0936 96.8555 59.5555C97.082 59.0174 97.1953 58.5077 97.1953 58.0262C97.1953 56.8934 96.5864 56.0155 95.3687 55.3924L91.8853 53.7357C91.3188 53.4242 91.0356 53.0277 91.0356 52.5462C91.0356 52.263 91.1064 52.0223 91.248 51.8241C91.3896 51.5975 91.6587 51.4842 92.0552 51.4842C92.395 51.4842 92.7773 51.5975 93.2021 51.8241C93.627 52.0506 94.1792 52.3197 94.8589 52.6312C95.5386 52.9427 96.3599 53.2826 97.3228 53.6507C98.2856 54.0189 99.4609 54.3446 100.849 54.6278C101.387 54.7411 102.024 54.8402 102.76 54.9251C103.525 55.0101 104.304 55.0951 105.097 55.18C105.89 55.2367 106.654 55.2933 107.391 55.35C108.155 55.3783 108.792 55.3924 109.302 55.3924C109.897 55.3924 110.364 55.4774 110.704 55.6473C111.044 55.7889 111.214 56.058 111.214 56.4544C111.214 56.766 111.058 57.035 110.747 57.2616C110.435 57.4598 109.897 57.5589 109.132 57.5589C108.396 57.5589 107.66 57.5873 106.923 57.6439C106.215 57.7005 105.507 57.8138 104.799 57.9837C104.091 58.1537 103.383 58.4085 102.675 58.7484C101.967 59.0882 101.245 59.5414 100.509 60.1078C100.056 60.4476 99.5176 60.9007 98.8945 61.4671C98.2998 62.0052 97.6909 62.6 97.0679 63.2513C96.4731 63.8744 95.8926 64.5257 95.3262 65.2054C94.7598 65.8568 94.2783 66.4798 93.8818 67.0746C93.9668 67.6976 94.165 68.703 94.4766 70.0907C94.8164 71.4501 95.2695 72.9935 95.8359 74.721C96.4023 76.4203 97.0962 78.1903 97.9175 80.0311C98.7671 81.8436 99.73 83.5003 100.806 85.0013C101.882 86.5023 103.1 87.7484 104.459 88.7396C105.819 89.7025 107.306 90.1839 108.92 90.1839C110.421 90.1839 111.625 89.6459 112.531 88.5697C113.437 87.4935 113.89 86.0633 113.89 84.2792C113.89 83.5145 113.791 82.7782 113.593 82.0702C113.395 81.3338 113.14 80.64 112.828 79.9886C112.517 79.3373 112.148 78.7425 111.724 78.2044C111.299 77.638 110.86 77.1424 110.407 76.7176C110.067 76.3778 109.713 76.0804 109.345 75.8255C109.005 75.5423 108.835 75.3158 108.835 75.1459C108.835 74.9193 108.991 74.806 109.302 74.806C109.642 74.806 110.109 74.9901 110.704 75.3583C111.327 75.6981 111.894 76.0946 112.403 76.5477C112.97 77.0008 113.508 77.5531 114.018 78.2044C114.556 78.8275 115.023 79.5497 115.419 80.3709C115.844 81.1922 116.17 82.1126 116.396 83.1322C116.651 84.1234 116.779 85.2279 116.779 86.4457C116.779 87.3236 116.637 88.3573 116.354 89.5467C116.099 90.7362 115.618 91.8832 114.91 92.9876C114.23 94.0638 113.267 94.9842 112.021 95.7489C110.775 96.5135 109.175 96.8959 107.221 96.8959C104.587 96.8959 102.236 96.287 100.169 95.0692C98.1299 93.8231 96.3174 92.138 94.7314 90.014C93.1738 87.89 91.8286 85.412 90.6958 82.5799C89.563 79.7479 88.6001 76.7459 87.8071 73.5741L86.0654 75.4857C86.1221 76.8734 86.1929 78.3744 86.2778 79.9886C86.3911 81.6029 86.5186 83.2313 86.6602 84.8739C86.8018 86.4881 86.9434 88.0741 87.085 89.6317C87.2266 91.1893 87.354 92.6195 87.4673 93.9222C87.6089 95.225 87.7363 96.3578 87.8496 97.3207C87.9629 98.2552 88.062 98.9208 88.147 99.3172C88.3169 100.252 88.5293 101.087 88.7842 101.824C89.0674 102.56 89.4355 103.183 89.8887 103.693C90.3418 104.202 90.9224 104.585 91.6304 104.84C92.3384 105.123 93.2305 105.265 94.3066 105.265C94.7881 105.265 95.2979 105.25 95.8359 105.222C96.4023 105.194 96.9404 105.18 97.4502 105.18C97.8184 105.18 98.1865 105.194 98.5547 105.222C98.9229 105.279 99.2485 105.364 99.5317 105.477C99.8149 105.59 100.042 105.746 100.211 105.944C100.41 106.142 100.509 106.411 100.509 106.751C100.509 107.261 100.24 107.7 99.7017 108.068C99.1919 108.465 98.1582 108.663 96.6006 108.663C95.8076 108.663 95.0146 108.62 94.2217 108.535C93.457 108.479 92.5649 108.394 91.5454 108.281C90.5542 108.196 89.3789 108.111 88.0195 108.026C86.6885 107.969 85.0742 107.941 83.1768 107.941ZM131.18 19.0292C131.18 19.3407 131.18 20.077 131.18 21.2381C131.18 22.3993 131.18 23.787 131.18 25.4012C131.208 27.0155 131.222 28.743 131.222 30.5838C131.25 32.4247 131.293 34.1947 131.35 35.8939C131.406 38.2728 131.505 41.0199 131.647 44.1351C131.789 47.2503 131.93 50.493 132.072 53.8631C132.242 57.2049 132.412 60.5751 132.582 63.9735C132.78 67.3719 132.964 70.558 133.134 73.5316C133.332 76.4769 133.502 79.0965 133.644 81.3905C133.785 83.6844 133.898 85.4261 133.983 86.6156C134.097 88.2865 134.323 89.6034 134.663 90.5663C135.003 91.5292 135.47 92.2938 136.065 92.8602C136.688 93.4266 137.453 93.8656 138.359 94.1771C139.293 94.4886 140.412 94.8143 141.715 95.1542C142.196 95.2958 142.508 95.4515 142.649 95.6214C142.791 95.7914 142.862 95.9896 142.862 96.2162C142.862 96.471 142.763 96.6976 142.564 96.8959C142.366 97.0658 141.998 97.1507 141.46 97.1507C141.205 97.1507 140.681 97.1224 139.888 97.0658C139.124 97.0091 138.217 96.9383 137.169 96.8534C136.122 96.7684 134.975 96.6976 133.729 96.641C132.511 96.5843 131.321 96.556 130.16 96.556C129.226 96.556 128.234 96.5985 127.187 96.6834C126.139 96.7684 125.119 96.8534 124.128 96.9383C123.137 97.0233 122.202 97.1083 121.324 97.1932C120.475 97.2782 119.767 97.3207 119.2 97.3207C118.804 97.3207 118.407 97.2499 118.011 97.1083C117.643 96.9667 117.458 96.641 117.458 96.1312C117.458 95.3666 118.011 94.9842 119.115 94.9842C119.852 94.9842 120.673 94.9417 121.579 94.8568C122.514 94.7718 123.278 94.6161 123.873 94.3895C124.354 94.2196 124.737 93.9789 125.02 93.6673C125.303 93.3558 125.516 93.016 125.657 92.6478C125.827 92.2513 125.94 91.8548 125.997 91.4584C126.054 91.0335 126.082 90.6087 126.082 90.1839C126.082 89.6742 126.04 88.867 125.955 87.7626C125.898 86.6297 125.813 85.3128 125.7 83.8119C125.586 82.3109 125.445 80.6542 125.275 78.8417C125.133 77.0292 124.978 75.1742 124.808 73.2767C124.638 71.3509 124.468 69.4393 124.298 67.5418C124.128 65.6444 123.958 63.846 123.788 62.1468C123.618 60.4476 123.462 58.9042 123.321 57.5165C123.208 56.1288 123.108 54.9959 123.023 54.118C122.882 52.8153 122.74 51.4701 122.599 50.0824C122.457 48.6664 122.315 47.2787 122.174 45.9193C122.032 44.5599 121.876 43.2572 121.707 42.0111C121.537 40.765 121.367 39.6322 121.197 38.6126C121.027 37.6214 120.729 36.8568 120.305 36.3187C119.908 35.7523 119.299 35.4691 118.478 35.4691C117.827 35.4691 117.062 35.6249 116.184 35.9364C115.334 36.2479 114.471 36.5877 113.593 36.9559C112.715 37.3241 111.894 37.6639 111.129 37.9754C110.336 38.287 109.713 38.4427 109.26 38.4427C108.948 38.4427 108.679 38.3719 108.453 38.2303C108.198 38.0604 108.07 37.7772 108.07 37.3807C108.07 36.8426 108.354 36.3895 108.92 36.0213C109.175 35.8231 109.515 35.6249 109.939 35.4266C110.364 35.2284 110.931 34.9593 111.639 34.6195C112.318 34.2513 113.168 33.7699 114.188 33.1751C115.207 32.5804 116.439 31.7875 117.883 30.7962C119.413 29.7484 120.8 28.6439 122.046 27.4828C123.292 26.3216 124.397 25.203 125.36 24.1268C126.351 23.0223 127.172 22.0169 127.824 21.1107C128.503 20.2044 129.013 19.4823 129.353 18.9442C129.665 18.5194 129.905 18.1795 130.075 17.9247C130.245 17.6698 130.443 17.5423 130.67 17.5423C130.896 17.5423 131.038 17.7123 131.095 18.0521C131.151 18.3636 131.18 18.6893 131.18 19.0292ZM156.371 67.8392C155.323 67.8392 154.332 67.641 153.397 67.2445C152.491 66.848 151.698 66.2533 151.018 65.4603C150.338 64.6673 149.8 63.6761 149.404 62.4867C149.007 61.2972 148.809 59.8954 148.809 58.2811C148.809 56.5252 149.05 54.8119 149.531 53.141C150.041 51.4417 150.82 49.9408 151.868 48.638C152.916 47.307 154.247 46.245 155.861 45.452C157.503 44.659 159.472 44.2626 161.766 44.2626C163.663 44.2626 165.334 44.5174 166.778 45.0272C168.251 45.5086 169.54 46.1742 170.644 47.0238C171.749 47.8451 172.683 48.808 173.448 49.9125C174.241 51.0169 174.906 52.1781 175.444 53.3959C175.982 54.5853 176.421 55.8031 176.761 57.0492C177.129 58.2669 177.441 59.4281 177.696 60.5326C177.837 61.1556 178.007 62.0477 178.206 63.2088C178.432 64.3417 178.673 65.6585 178.928 67.1595C179.183 68.6605 179.452 70.2748 179.735 72.0023C180.018 73.7015 180.301 75.4291 180.584 77.1849C180.868 78.9408 181.137 80.6542 181.392 82.3251C181.675 83.9676 181.93 85.4828 182.156 86.8705C182.383 88.2298 182.567 89.4051 182.708 90.3963C182.878 91.3592 183.006 92.0248 183.091 92.3929C183.261 93.2709 183.445 94.1629 183.643 95.0692C183.87 95.9754 184.139 96.8109 184.45 97.5755C184.79 98.3119 185.201 98.9208 185.682 99.4022C186.164 99.8836 186.772 100.124 187.509 100.124C187.934 100.124 188.302 100.025 188.613 99.827C188.925 99.6288 189.166 99.3597 189.335 99.0199C189.534 98.68 189.675 98.2977 189.76 97.8729C189.845 97.4481 189.888 97.0091 189.888 96.556C189.888 96.0179 189.874 95.4798 189.845 94.9417C189.817 94.3753 189.803 93.8939 189.803 93.4974C189.803 93.0726 189.859 92.7044 189.973 92.3929C190.086 92.0814 190.312 91.9256 190.652 91.9256C190.964 91.9256 191.205 92.1097 191.375 92.4779C191.573 92.8177 191.714 93.2284 191.799 93.7098C191.913 94.1629 191.983 94.6302 192.012 95.1117C192.04 95.5648 192.054 95.9046 192.054 96.1312C192.054 97.1224 191.969 98.2411 191.799 99.4872C191.629 100.733 191.275 101.937 190.737 103.098C190.228 104.287 189.378 105.265 188.188 106.029C186.999 106.794 185.625 107.176 184.068 107.176C182.708 107.176 181.533 106.978 180.542 106.581C179.579 106.185 178.744 105.689 178.036 105.095C177.356 104.5 176.775 103.863 176.294 103.183C175.841 102.503 175.473 101.866 175.189 101.271C174.396 99.742 173.788 98.0711 173.363 96.2586C172.966 94.4178 172.641 92.662 172.386 90.9911C171.961 91.6991 171.31 92.577 170.432 93.6249C169.582 94.6727 168.52 95.6781 167.246 96.641C165.971 97.6039 164.499 98.4251 162.828 99.1048C161.157 99.7845 159.302 100.124 157.263 100.124C154.997 100.124 153.057 99.7987 151.443 99.1473C149.857 98.5243 148.554 97.6747 147.535 96.5985C146.515 95.494 145.765 94.2196 145.283 92.7752C144.802 91.3026 144.561 89.745 144.561 88.1024C144.561 86.3465 144.887 84.5765 145.538 82.7923C146.189 81.0082 147.251 79.3939 148.724 77.9496C150.225 76.5052 152.165 75.3299 154.544 74.4237C156.951 73.5174 159.882 73.0643 163.337 73.0643C164.13 73.0643 164.895 73.1068 165.631 73.1917C166.396 73.2484 167.076 73.3192 167.67 73.4042C168.293 73.4891 168.817 73.5741 169.242 73.659C169.695 73.744 170.021 73.8006 170.219 73.829C170.049 71.3934 169.837 68.9579 169.582 66.5223C169.469 65.5028 169.341 64.4266 169.2 63.2938C169.086 62.161 168.959 61.0282 168.817 59.8954C168.676 58.7342 168.52 57.6014 168.35 56.4969C168.18 55.3924 167.996 54.3587 167.798 53.3959C167.345 51.2152 166.453 49.4876 165.122 48.2132C163.819 46.9105 162.148 46.2591 160.109 46.2591C159.004 46.2591 158.027 46.4574 157.178 46.8539C156.356 47.2503 155.648 47.7601 155.054 48.3832C154.487 49.0062 154.062 49.7142 153.779 50.5072C153.496 51.2718 153.354 52.0365 153.354 52.8011C153.354 53.6224 153.553 54.3163 153.949 54.8827C154.346 55.4208 154.827 55.9022 155.394 56.327C155.988 56.7518 156.625 57.1625 157.305 57.5589C157.985 57.9271 158.608 58.3661 159.174 58.8758C159.769 59.3573 160.265 59.952 160.661 60.66C161.058 61.3397 161.256 62.2035 161.256 63.2513C161.256 64.639 160.774 65.7577 159.812 66.6073C158.877 67.4286 157.73 67.8392 156.371 67.8392ZM170.559 76.4627C170.361 76.3778 170.007 76.2787 169.497 76.1654C169.016 76.0238 168.435 75.8963 167.755 75.7831C167.076 75.6415 166.339 75.5282 165.546 75.4432C164.782 75.3583 164.017 75.3158 163.252 75.3158C161.751 75.3158 160.35 75.5282 159.047 75.953C157.772 76.3778 156.668 77.015 155.733 77.8646C154.799 78.6859 154.062 79.7337 153.524 81.0082C152.986 82.2542 152.717 83.6986 152.717 85.3412C152.717 86.8421 152.958 88.0882 153.439 89.0794C153.949 90.0423 154.586 90.807 155.351 91.3734C156.144 91.9398 157.008 92.3363 157.942 92.5628C158.905 92.7894 159.84 92.9027 160.746 92.9027C162.19 92.9027 163.564 92.6761 164.867 92.223C166.169 91.7699 167.316 91.2459 168.308 90.6512C169.299 90.0565 170.106 89.4759 170.729 88.9095C171.352 88.3431 171.734 87.9608 171.876 87.7626C171.678 85.8651 171.494 84.1376 171.324 82.5799C171.239 81.9002 171.154 81.2347 171.069 80.5834C171.012 79.932 170.941 79.3231 170.856 78.7567C170.8 78.1903 170.743 77.7088 170.687 77.3124C170.63 76.9159 170.587 76.6327 170.559 76.4627ZM188.231 52.4613C188.882 52.2347 189.732 52.0223 190.78 51.8241C191.856 51.5975 192.89 51.3709 193.881 51.1444C195.892 50.6629 197.562 50.0116 198.894 49.1903C200.225 48.369 201.343 47.3636 202.25 46.1742C203.184 44.9564 203.977 43.5687 204.628 42.0111C205.28 40.4251 205.931 38.6268 206.583 36.6161C207.149 34.8602 207.715 33.6283 208.282 32.9203C208.876 32.1839 209.528 31.8158 210.236 31.8158C210.887 31.8158 211.34 32.0565 211.595 32.5379C211.85 33.0194 211.978 33.6566 211.978 34.4496C211.978 35.2142 211.85 36.2054 211.595 37.4232C211.34 38.6126 211.043 39.8729 210.703 41.204C210.392 42.535 210.108 43.8519 209.854 45.1546C209.599 46.4291 209.471 47.5477 209.471 48.5106C209.471 48.9637 209.556 49.3744 209.726 49.7425C209.924 50.0824 210.307 50.2523 210.873 50.2523C211.213 50.2523 211.624 50.224 212.105 50.1673C212.586 50.1107 213.096 50.0541 213.634 49.9974C214.172 49.9408 214.725 49.8841 215.291 49.8275C215.886 49.7709 216.438 49.7425 216.948 49.7425C218.166 49.7425 218.774 50.1249 218.774 50.8895C218.774 51.286 218.619 51.5692 218.307 51.7391C217.996 51.909 217.571 51.994 217.033 51.994C216.636 51.994 216.155 52.0082 215.588 52.0365C215.022 52.0648 214.413 52.1356 213.762 52.2489C213.11 52.3338 212.459 52.4613 211.808 52.6312C211.156 52.8011 210.547 53.0277 209.981 53.3109C209.188 53.7074 208.537 54.203 208.027 54.7977C207.545 55.3924 207.149 56.0013 206.837 56.6244C206.356 57.6156 205.846 58.975 205.308 60.7025C204.77 62.43 204.274 64.3558 203.821 66.4798C203.368 68.5755 202.986 70.7845 202.674 73.1068C202.391 75.4007 202.25 77.6239 202.25 79.7762C202.25 82.8065 202.504 85.412 203.014 87.5926C203.524 89.745 204.232 91.5292 205.138 92.9452C206.044 94.3612 207.121 95.409 208.367 96.0887C209.613 96.7401 210.958 97.0658 212.402 97.0658C213.535 97.0658 214.498 96.91 215.291 96.5985C216.084 96.2586 216.735 95.8338 217.245 95.3241C217.755 94.786 218.123 94.2054 218.35 93.5824C218.576 92.931 218.689 92.2938 218.689 91.6708C218.689 90.9061 218.477 90.2689 218.052 89.7591C217.656 89.221 217.203 88.7113 216.693 88.2298C216.183 87.7484 215.716 87.2245 215.291 86.6581C214.895 86.0917 214.696 85.3553 214.696 84.4491C214.696 83.3163 215.05 82.3675 215.758 81.6029C216.495 80.8382 217.5 80.4559 218.774 80.4559C219.341 80.4559 219.879 80.555 220.389 80.7533C220.927 80.9515 221.394 81.2772 221.791 81.7303C222.215 82.1834 222.555 82.764 222.81 83.472C223.065 84.1517 223.192 84.973 223.192 85.9359C223.192 87.6068 222.938 89.2777 222.428 90.9486C221.918 92.5912 221.111 94.078 220.006 95.409C218.902 96.7118 217.472 97.7738 215.716 98.5951C213.96 99.4447 211.822 99.8695 209.301 99.8695C206.469 99.8695 203.92 99.2889 201.655 98.1278C199.389 96.9383 197.577 95.3382 196.217 93.3275C195 91.4584 194.107 89.3485 193.541 86.9979C192.975 84.619 192.691 82.2118 192.691 79.7762C192.691 76.9442 192.904 74.2113 193.329 71.5775C193.753 68.9154 194.221 66.5082 194.73 64.3558C195.24 62.1751 195.708 60.306 196.132 58.7484C196.557 57.1625 196.77 56.0155 196.77 55.3075C196.77 54.7977 196.628 54.4862 196.345 54.3729C196.062 54.2596 195.679 54.203 195.198 54.203C194.915 54.203 194.518 54.2171 194.008 54.2455C193.527 54.2738 192.989 54.3021 192.394 54.3304C191.799 54.3587 191.176 54.3871 190.525 54.4154C189.874 54.4437 189.25 54.4579 188.656 54.4579C187.608 54.4579 187.084 54.1605 187.084 53.5658C187.084 53.0843 187.466 52.7162 188.231 52.4613ZM237.253 67.8392C236.206 67.8392 235.214 67.641 234.28 67.2445C233.374 66.848 232.581 66.2533 231.901 65.4603C231.221 64.6673 230.683 63.6761 230.287 62.4867C229.89 61.2972 229.692 59.8954 229.692 58.2811C229.692 56.5252 229.933 54.8119 230.414 53.141C230.924 51.4417 231.703 49.9408 232.75 48.638C233.798 47.307 235.129 46.245 236.744 45.452C238.386 44.659 240.354 44.2626 242.648 44.2626C244.546 44.2626 246.217 44.5174 247.661 45.0272C249.134 45.5086 250.422 46.1742 251.527 47.0238C252.631 47.8451 253.566 48.808 254.331 49.9125C255.124 51.0169 255.789 52.1781 256.327 53.3959C256.865 54.5853 257.304 55.8031 257.644 57.0492C258.012 58.2669 258.324 59.4281 258.579 60.5326C258.72 61.1556 258.89 62.0477 259.088 63.2088C259.315 64.3417 259.556 65.6585 259.811 67.1595C260.065 68.6605 260.334 70.2748 260.618 72.0023C260.901 73.7015 261.184 75.4291 261.467 77.1849C261.75 78.9408 262.02 80.6542 262.274 82.3251C262.558 83.9676 262.812 85.4828 263.039 86.8705C263.266 88.2298 263.45 89.4051 263.591 90.3963C263.761 91.3592 263.889 92.0248 263.974 92.3929C264.144 93.2709 264.328 94.1629 264.526 95.0692C264.752 95.9754 265.021 96.8109 265.333 97.5755C265.673 98.3119 266.083 98.9208 266.565 99.4022C267.046 99.8836 267.655 100.124 268.392 100.124C268.816 100.124 269.185 100.025 269.496 99.827C269.808 99.6288 270.048 99.3597 270.218 99.0199C270.417 98.68 270.558 98.2977 270.643 97.8729C270.728 97.4481 270.771 97.0091 270.771 96.556C270.771 96.0179 270.756 95.4798 270.728 94.9417C270.7 94.3753 270.686 93.8939 270.686 93.4974C270.686 93.0726 270.742 92.7044 270.855 92.3929C270.969 92.0814 271.195 91.9256 271.535 91.9256C271.847 91.9256 272.087 92.1097 272.257 92.4779C272.456 92.8177 272.597 93.2284 272.682 93.7098C272.795 94.1629 272.866 94.6302 272.895 95.1117C272.923 95.5648 272.937 95.9046 272.937 96.1312C272.937 97.1224 272.852 98.2411 272.682 99.4872C272.512 100.733 272.158 101.937 271.62 103.098C271.11 104.287 270.261 105.265 269.071 106.029C267.882 106.794 266.508 107.176 264.951 107.176C263.591 107.176 262.416 106.978 261.425 106.581C260.462 106.185 259.626 105.689 258.918 105.095C258.239 104.5 257.658 103.863 257.177 103.183C256.724 102.503 256.355 101.866 256.072 101.271C255.279 99.742 254.67 98.0711 254.246 96.2586C253.849 94.4178 253.523 92.662 253.269 90.9911C252.844 91.6991 252.192 92.577 251.314 93.6249C250.465 94.6727 249.403 95.6781 248.128 96.641C246.854 97.6039 245.381 98.4251 243.71 99.1048C242.04 99.7845 240.185 100.124 238.146 100.124C235.88 100.124 233.94 99.7987 232.326 99.1473C230.74 98.5243 229.437 97.6747 228.417 96.5985C227.398 95.494 226.647 94.2196 226.166 92.7752C225.685 91.3026 225.444 89.745 225.444 88.1024C225.444 86.3465 225.77 84.5765 226.421 82.7923C227.072 81.0082 228.134 79.3939 229.607 77.9496C231.108 76.5052 233.048 75.3299 235.427 74.4237C237.834 73.5174 240.765 73.0643 244.22 73.0643C245.013 73.0643 245.778 73.1068 246.514 73.1917C247.279 73.2484 247.958 73.3192 248.553 73.4042C249.176 73.4891 249.7 73.5741 250.125 73.659C250.578 73.744 250.904 73.8006 251.102 73.829C250.932 71.3934 250.72 68.9579 250.465 66.5223C250.352 65.5028 250.224 64.4266 250.083 63.2938C249.969 62.161 249.842 61.0282 249.7 59.8954C249.559 58.7342 249.403 57.6014 249.233 56.4969C249.063 55.3924 248.879 54.3587 248.681 53.3959C248.228 51.2152 247.335 49.4876 246.004 48.2132C244.702 46.9105 243.031 46.2591 240.992 46.2591C239.887 46.2591 238.91 46.4574 238.061 46.8539C237.239 47.2503 236.531 47.7601 235.937 48.3832C235.37 49.0062 234.945 49.7142 234.662 50.5072C234.379 51.2718 234.237 52.0365 234.237 52.8011C234.237 53.6224 234.436 54.3163 234.832 54.8827C235.229 55.4208 235.71 55.9022 236.276 56.327C236.871 56.7518 237.508 57.1625 238.188 57.5589C238.868 57.9271 239.491 58.3661 240.057 58.8758C240.652 59.3573 241.147 59.952 241.544 60.66C241.94 61.3397 242.139 62.2035 242.139 63.2513C242.139 64.639 241.657 65.7577 240.694 66.6073C239.76 67.4286 238.613 67.8392 237.253 67.8392ZM251.442 76.4627C251.244 76.3778 250.89 76.2787 250.38 76.1654C249.898 76.0238 249.318 75.8963 248.638 75.7831C247.958 75.6415 247.222 75.5282 246.429 75.4432C245.665 75.3583 244.9 75.3158 244.135 75.3158C242.634 75.3158 241.232 75.5282 239.93 75.953C238.655 76.3778 237.551 77.015 236.616 77.8646C235.682 78.6859 234.945 79.7337 234.407 81.0082C233.869 82.2542 233.6 83.6986 233.6 85.3412C233.6 86.8421 233.841 88.0882 234.322 89.0794C234.832 90.0423 235.469 90.807 236.234 91.3734C237.027 91.9398 237.891 92.3363 238.825 92.5628C239.788 92.7894 240.723 92.9027 241.629 92.9027C243.073 92.9027 244.447 92.6761 245.75 92.223C247.052 91.7699 248.199 91.2459 249.19 90.6512C250.182 90.0565 250.989 89.4759 251.612 88.9095C252.235 88.3431 252.617 87.9608 252.759 87.7626C252.561 85.8651 252.376 84.1376 252.207 82.5799C252.122 81.9002 252.037 81.2347 251.952 80.5834C251.895 79.932 251.824 79.3231 251.739 78.7567C251.683 78.1903 251.626 77.7088 251.569 77.3124C251.513 76.9159 251.47 76.6327 251.442 76.4627ZM282.92 43.7528C283.146 43.7528 283.373 44.1209 283.6 44.8573C283.826 45.5653 284.053 46.4999 284.279 47.661C284.506 48.8221 284.732 50.1673 284.959 51.6966C285.186 53.1976 285.412 54.7269 285.639 56.2845L287.168 66.9896C287.31 66.055 287.55 64.9789 287.89 63.7611C288.258 62.5433 288.74 61.2831 289.334 59.9803C289.929 58.6776 290.651 57.4032 291.501 56.1571C292.351 54.911 293.328 53.7923 294.432 52.8011C295.565 51.8099 296.825 51.0169 298.213 50.4222C299.629 49.7992 301.201 49.4876 302.928 49.4876C305.052 49.4876 306.893 49.8983 308.451 50.7196C310.008 51.5126 311.297 52.6312 312.316 54.0755C313.336 55.4916 314.086 57.1908 314.568 59.1732C315.049 61.1556 315.29 63.3221 315.29 65.6727C315.29 67.7967 315.163 69.9349 314.908 72.0873C314.681 74.2113 314.426 76.307 314.143 78.3744C313.888 80.4417 313.633 82.4383 313.378 84.3641C313.152 86.2899 313.039 88.0882 313.039 89.7591C313.039 90.7503 313.124 91.6141 313.293 92.3504C313.463 93.0868 313.718 93.7665 314.058 94.3895C314.455 94.9842 314.936 95.5082 315.502 95.9613C316.097 96.3861 316.649 96.7967 317.159 97.1932C317.697 97.5614 318.15 97.9437 318.519 98.3402C318.915 98.7084 319.113 99.1048 319.113 99.5296C319.113 99.7845 319.042 99.9969 318.901 100.167C318.759 100.365 318.519 100.464 318.179 100.464C317.669 100.464 317.103 100.266 316.479 99.8695C315.885 99.5013 315.134 99.034 314.228 98.4676C313.35 97.8729 312.288 97.2499 311.042 96.5985C309.796 95.9188 308.281 95.2958 306.497 94.7293C305.166 94.2762 303.82 93.9222 302.461 93.6673C301.13 93.4125 299.572 93.2425 297.788 93.1576C296.797 93.0726 296.301 92.7894 296.301 92.308C296.301 91.7699 296.627 91.5008 297.278 91.5008C297.675 91.5008 298.227 91.5008 298.935 91.5008C299.643 91.5008 300.365 91.4725 301.102 91.4159C302.234 91.3309 303.169 90.9911 303.905 90.3963C304.642 89.7733 305.194 88.6405 305.562 86.9979C305.675 86.3465 305.789 85.5252 305.902 84.534C306.015 83.5145 306.114 82.4383 306.199 81.3055C306.284 80.1444 306.355 78.9691 306.412 77.7796C306.468 76.5902 306.497 75.4574 306.497 74.3812C306.497 73.4183 306.482 72.3138 306.454 71.0677C306.426 69.7933 306.327 68.4764 306.157 67.117C306.015 65.7577 305.774 64.4266 305.435 63.1239C305.123 61.8211 304.656 60.66 304.033 59.6405C303.41 58.6209 302.617 57.7997 301.654 57.1766C300.691 56.5252 299.516 56.1996 298.128 56.1996C296.938 56.1996 295.848 56.4969 294.857 57.0917C293.894 57.6864 293.03 58.5218 292.266 59.598C291.501 60.6459 290.85 61.8919 290.312 63.3363C289.773 64.7806 289.363 66.3666 289.08 68.0941C288.768 69.85 288.556 71.6625 288.442 73.5316C288.357 75.3724 288.315 77.2132 288.315 79.0541C288.315 80.6117 288.372 82.1126 288.485 83.557C288.598 84.973 288.754 86.2899 288.952 87.5077C289.15 88.6971 289.391 89.7591 289.674 90.6937C289.958 91.6283 290.283 92.3646 290.651 92.9027C291.189 93.639 291.77 94.1913 292.393 94.5594C293.016 94.9276 293.54 95.1825 293.965 95.3241C294.531 95.494 294.928 95.6498 295.154 95.7914C295.409 95.9046 295.537 96.0746 295.537 96.3011C295.537 96.471 295.395 96.6268 295.112 96.7684C294.857 96.91 294.418 96.9808 293.795 96.9808C293.2 96.9808 292.549 96.9383 291.841 96.8534C291.133 96.7401 290.396 96.6268 289.632 96.5135C288.867 96.4002 288.074 96.3011 287.253 96.2162C286.432 96.1029 285.625 96.0462 284.832 96.0462C284.039 96.0462 283.231 96.0746 282.41 96.1312C281.589 96.1878 280.796 96.2445 280.031 96.3011C279.295 96.3578 278.615 96.4144 277.992 96.471C277.369 96.5277 276.874 96.556 276.505 96.556C275.401 96.556 274.849 96.202 274.849 95.494C274.849 95.2391 274.934 95.0267 275.104 94.8568C275.302 94.6585 275.642 94.5311 276.123 94.4745C276.52 94.4461 276.874 94.4178 277.185 94.3895C277.497 94.3612 277.808 94.347 278.12 94.347C278.459 94.3187 278.799 94.2904 279.139 94.2621C279.507 94.2337 279.932 94.1913 280.414 94.1346C281.32 93.993 281.929 93.6673 282.24 93.1576C282.58 92.6195 282.75 91.8973 282.75 90.9911C282.75 89.4334 282.608 87.536 282.325 85.2987C282.07 83.0614 281.716 80.5975 281.263 77.9071C280.81 75.2167 280.258 72.3705 279.606 69.3685C278.983 66.3382 278.318 63.2513 277.61 60.1078C277.27 58.4935 276.874 57.2899 276.42 56.4969C275.996 55.704 275.373 55.3075 274.551 55.3075C274.126 55.3075 273.688 55.3924 273.234 55.5624C272.781 55.704 272.328 55.8739 271.875 56.0721C271.45 56.242 271.04 56.412 270.643 56.5819C270.247 56.7235 269.878 56.7943 269.539 56.7943C269 56.7943 268.731 56.5677 268.731 56.1146C268.731 55.7464 268.873 55.4916 269.156 55.35C269.468 55.18 269.793 55.0243 270.133 54.8827C270.926 54.5711 271.776 54.1747 272.682 53.6932C273.617 53.2118 274.622 52.5604 275.698 51.7391C276.746 50.9178 277.681 50.0399 278.502 49.1053C279.323 48.1708 280.031 47.307 280.626 46.514C281.221 45.721 281.702 45.0697 282.07 44.5599C282.438 44.0218 282.722 43.7528 282.92 43.7528Z" fill="#BF4342"/>
<path d="M322.937 22.2577C323.446 22.2577 324.112 22.3993 324.933 22.6825C325.783 22.9657 326.774 23.3197 327.907 23.7445C329.068 24.141 330.356 24.5658 331.772 25.0189C333.217 25.4437 334.774 25.826 336.445 26.1659C338.088 26.5057 339.815 26.7889 341.628 27.0155C343.469 27.2137 345.196 27.3836 346.811 27.5252C348.425 27.6385 349.841 27.7376 351.059 27.8226C352.305 27.9076 353.14 27.9642 353.565 27.9925C353.961 28.0492 354.273 28.1341 354.5 28.2474C354.754 28.3324 354.882 28.5165 354.882 28.7997C354.882 29.1112 354.754 29.3236 354.5 29.4369C354.245 29.5218 353.961 29.5643 353.65 29.5643C353.027 29.5643 352.106 29.5218 350.889 29.4369C349.699 29.3519 348.439 29.3094 347.108 29.3094C346.117 29.3094 345.239 29.4085 344.474 29.6068C343.738 29.7767 343.115 30.0741 342.605 30.4989C342.124 30.9237 341.741 31.4901 341.458 32.1981C341.175 32.8778 341.005 33.7416 340.948 34.7894C340.892 35.3841 340.849 36.1629 340.821 37.1258C340.821 38.0604 340.807 39.1083 340.778 40.2694C340.778 41.4305 340.778 42.6766 340.778 44.0077C340.778 45.3104 340.778 46.6415 340.778 48.0008C340.778 49.6434 340.778 51.2435 340.778 52.8011C340.778 54.3587 340.778 55.7889 340.778 57.0917C340.778 58.3944 340.778 59.4989 340.778 60.4051C340.807 61.3114 340.835 61.9344 340.863 62.2743C340.892 63.0106 340.977 63.6053 341.118 64.0584C341.26 64.5116 341.458 64.8656 341.713 65.1205C341.968 65.3753 342.265 65.5453 342.605 65.6302C342.945 65.7152 343.327 65.7577 343.752 65.7577C344.545 65.7577 345.508 65.7293 346.641 65.6727C347.773 65.5877 348.977 65.4886 350.251 65.3753C351.554 65.2621 352.857 65.1346 354.16 64.993C355.462 64.8231 356.666 64.6815 357.771 64.5682C358.903 64.4266 359.895 64.2992 360.744 64.1859C361.594 64.0726 362.188 63.9876 362.528 63.931C363.491 63.7611 364.256 63.4354 364.822 62.954C365.389 62.4725 365.799 61.8919 366.054 61.2123C366.337 60.5326 366.507 59.7679 366.564 58.9183C366.649 58.0404 366.691 57.1341 366.691 56.1996C366.691 54.9251 366.635 53.6224 366.521 52.2914C366.437 50.932 366.323 49.6434 366.182 48.4256C366.04 47.2079 365.884 46.1034 365.714 45.1122C365.573 44.1209 365.459 43.3705 365.375 42.8607C365.205 41.7562 364.95 40.9066 364.61 40.3119C364.27 39.6888 363.888 39.2357 363.463 38.9525C363.066 38.641 362.642 38.4569 362.188 38.4002C361.764 38.3153 361.381 38.2728 361.042 38.2728C360.079 38.2728 359.087 38.3011 358.068 38.3578C357.077 38.4144 356.298 38.4427 355.731 38.4427C355.165 38.4427 354.726 38.3294 354.415 38.1029C354.131 37.8763 353.99 37.579 353.99 37.2108C353.99 36.8993 354.103 36.6019 354.33 36.3187C354.584 36.0355 355.165 35.8656 356.071 35.8089C356.921 35.7806 357.87 35.7381 358.917 35.6815C359.994 35.5965 361.112 35.4974 362.273 35.3841C363.463 35.2425 364.667 35.0868 365.884 34.9168C367.102 34.7469 368.306 34.5345 369.495 34.2796C370.571 34.0248 371.718 33.7274 372.936 33.3876C374.182 33.0194 375.386 32.6795 376.547 32.368C377.736 32.0282 378.841 31.745 379.86 31.5184C380.88 31.2635 381.715 31.1361 382.367 31.1361C383.018 31.1361 383.429 31.2352 383.599 31.4334C383.769 31.6317 383.854 31.8441 383.854 32.0707C383.854 32.4671 383.684 32.7503 383.344 32.9203C383.032 33.0619 382.678 33.1327 382.282 33.1327C382.083 33.1327 381.814 33.1468 381.475 33.1751C381.135 33.2035 380.781 33.2601 380.413 33.3451C380.044 33.4017 379.676 33.4867 379.308 33.6C378.94 33.7132 378.628 33.869 378.374 34.0672C377.92 34.4354 377.496 34.9452 377.099 35.5965C376.731 36.2196 376.448 37.1683 376.25 38.4427C376.108 39.4623 375.995 40.7508 375.91 42.3084C375.853 43.8377 375.796 45.452 375.74 47.1512C375.683 48.8504 375.626 50.5497 375.57 52.2489C375.542 53.9481 375.513 55.4632 375.485 56.7943C375.457 57.474 375.414 58.4793 375.357 59.8104C375.329 61.1131 375.301 62.6283 375.272 64.3558C375.244 66.055 375.202 67.9242 375.145 69.9632C375.117 71.974 375.088 74.0272 375.06 76.1229C375.032 78.1903 375.003 80.2718 374.975 82.3675C374.975 84.4349 374.975 86.3749 374.975 88.1874C374.975 89.7167 374.975 91.1185 374.975 92.3929C374.975 93.6673 375.003 94.7577 375.06 95.6639C375.088 96.5702 375.202 97.3207 375.4 97.9154C375.626 98.4818 375.881 98.9349 376.165 99.2748C376.448 99.6429 376.745 99.912 377.057 100.082C377.396 100.28 377.708 100.436 377.991 100.549C378.614 100.776 379.28 100.946 379.988 101.059C380.696 101.172 381.46 101.328 382.282 101.526C382.678 101.611 382.933 101.71 383.046 101.824C383.16 101.965 383.216 102.121 383.216 102.291C383.216 102.348 383.202 102.418 383.174 102.503C383.146 102.617 383.075 102.716 382.961 102.801C382.876 102.886 382.721 102.956 382.494 103.013C382.268 103.07 381.956 103.098 381.56 103.098C381.22 103.098 380.611 103.056 379.733 102.971C378.883 102.914 377.92 102.829 376.844 102.716C375.768 102.631 374.664 102.546 373.531 102.461C372.398 102.404 371.393 102.376 370.515 102.376C369.354 102.376 368.207 102.418 367.074 102.503C365.941 102.617 364.865 102.73 363.845 102.843C362.826 102.985 361.863 103.098 360.957 103.183C360.05 103.296 359.243 103.353 358.535 103.353C357.346 103.353 356.581 103.197 356.241 102.886C355.901 102.602 355.731 102.291 355.731 101.951C355.731 101.498 355.901 101.201 356.241 101.059C356.609 100.946 357.048 100.889 357.558 100.889C359.172 100.832 360.518 100.747 361.594 100.634C362.698 100.549 363.732 100.294 364.695 99.8695C365.403 99.5296 365.969 99.119 366.394 98.6376C366.847 98.1844 367.173 97.6888 367.371 97.1507C367.598 96.5843 367.739 96.0179 367.796 95.4515C367.881 94.8568 367.923 94.2904 367.923 93.7523C367.923 93.3275 367.895 92.5628 367.838 91.4584C367.782 90.3539 367.697 89.0653 367.583 87.5926C367.499 86.0917 367.385 84.5057 367.244 82.8348C367.13 81.1356 367.003 79.493 366.861 77.9071C366.72 76.2928 366.578 74.8202 366.437 73.4891C366.323 72.1581 366.21 71.1102 366.097 70.3456C365.955 69.4959 365.771 68.8304 365.544 68.349C365.346 67.8392 365.091 67.4569 364.78 67.202C364.497 66.9471 364.157 66.7914 363.76 66.7347C363.364 66.6498 362.925 66.6073 362.443 66.6073C361.934 66.6073 361.155 66.6498 360.107 66.7347C359.087 66.8197 357.926 66.933 356.624 67.0746C355.349 67.1878 354.004 67.3294 352.588 67.4994C351.2 67.6693 349.883 67.8392 348.637 68.0091C347.419 68.1791 346.329 68.349 345.366 68.5189C344.403 68.6888 343.738 68.8446 343.37 68.9862C342.832 69.1561 342.407 69.3827 342.095 69.6659C341.784 69.9491 341.557 70.2606 341.416 70.6004C341.274 70.912 341.175 71.2518 341.118 71.62C341.09 71.9598 341.062 72.2997 341.033 72.6395C341.033 73.4608 341.033 74.5794 341.033 75.9955C341.062 77.4115 341.076 78.9833 341.076 80.7108C341.104 82.41 341.132 84.2084 341.161 86.1058C341.189 87.975 341.203 89.7875 341.203 91.5433C341.231 93.2992 341.246 94.9276 341.246 96.4286C341.274 97.9012 341.288 99.1048 341.288 100.039C341.288 101.37 341.373 102.447 341.543 103.268C341.713 104.089 341.939 104.741 342.223 105.222C342.506 105.732 342.846 106.128 343.242 106.411C343.639 106.723 344.063 107.006 344.517 107.261C344.998 107.516 345.451 107.743 345.876 107.941C346.301 108.167 346.513 108.465 346.513 108.833C346.513 109.059 346.414 109.215 346.216 109.3C346.046 109.385 345.833 109.428 345.579 109.428C344.984 109.428 344.361 109.343 343.709 109.173C343.086 109.003 342.35 108.819 341.5 108.62C340.651 108.451 339.631 108.281 338.442 108.111C337.281 107.941 335.879 107.856 334.236 107.856C332.537 107.856 330.965 107.955 329.521 108.153C328.105 108.351 326.831 108.564 325.698 108.79C324.565 109.045 323.588 109.272 322.767 109.47C321.945 109.668 321.28 109.767 320.77 109.767C319.722 109.767 319.198 109.399 319.198 108.663C319.198 108.21 319.312 107.884 319.538 107.686C319.793 107.488 320.119 107.318 320.515 107.176C320.685 107.119 320.968 107.049 321.365 106.964C321.761 106.879 322.229 106.78 322.767 106.666C323.333 106.581 323.942 106.468 324.593 106.327C325.245 106.185 325.91 106.029 326.59 105.859C327.496 105.633 328.204 105.321 328.714 104.925C329.224 104.528 329.592 104.075 329.818 103.565C330.073 103.084 330.229 102.56 330.286 101.994C330.342 101.427 330.385 100.861 330.413 100.294C330.413 100.124 330.427 99.5438 330.456 98.5526C330.484 97.5897 330.526 96.3719 330.583 94.8993C330.64 93.3983 330.696 91.6991 330.753 89.8016C330.81 87.8758 330.866 85.8934 330.923 83.8543C330.979 81.787 331.022 79.7337 331.05 77.6947C331.079 75.6273 331.107 73.6732 331.135 71.8324C331.135 71.4076 331.135 70.7137 331.135 69.7508C331.164 68.7596 331.178 67.5843 331.178 66.225C331.178 64.8656 331.178 63.3504 331.178 61.6795C331.206 60.0086 331.22 58.2669 331.22 56.4544C331.22 54.0472 331.206 51.5975 331.178 49.1053C331.178 46.6131 331.149 44.2909 331.093 42.1385C331.064 39.9579 331.008 38.0462 330.923 36.4037C330.866 34.7611 330.781 33.5858 330.668 32.8778C330.555 32.0565 330.399 31.3343 330.201 30.7113C330.002 30.0599 329.733 29.4793 329.394 28.9696C329.054 28.4598 328.643 27.9925 328.162 27.5677C327.708 27.1429 327.156 26.7323 326.505 26.3358C325.882 25.9676 325.287 25.6419 324.721 25.3587C324.154 25.0755 323.645 24.8207 323.191 24.5941C322.767 24.3675 322.427 24.141 322.172 23.9144C321.917 23.6595 321.79 23.3905 321.79 23.1073C321.79 22.8524 321.875 22.6542 322.044 22.5126C322.214 22.3426 322.512 22.2577 322.937 22.2577ZM398.297 51.2293C398.467 51.2293 398.623 51.3568 398.764 51.6117C398.906 51.8666 399.062 52.5179 399.231 53.5658C399.628 55.9447 399.968 58.097 400.251 60.0228C400.534 61.9486 400.832 63.7186 401.143 65.3329C401.823 69.0428 402.488 72.3563 403.14 75.2733C403.819 78.1903 404.612 80.6542 405.519 82.6649C406.425 84.6756 407.529 86.2049 408.832 87.2528C410.163 88.3006 411.834 88.8246 413.845 88.8246C415.289 88.8246 416.549 88.4989 417.625 87.8475C418.702 87.1678 419.608 86.2757 420.344 85.1712C421.109 84.0384 421.732 82.7499 422.213 81.3055C422.695 79.8612 423.063 78.3744 423.318 76.8451C423.601 75.2875 423.785 73.744 423.87 72.2147C423.983 70.6571 424.04 69.2269 424.04 67.9242C424.04 66.7064 424.012 65.5028 423.955 64.3133C423.898 63.1239 423.7 62.0619 423.36 61.1273C423.021 60.1644 422.482 59.3998 421.746 58.8334C421.038 58.2386 420.004 57.9413 418.645 57.9413C417.824 57.9413 416.988 58.0121 416.139 58.1537C415.289 58.2953 414.468 58.3661 413.675 58.3661C413.278 58.3661 412.938 58.2811 412.655 58.1112C412.4 57.9413 412.273 57.6722 412.273 57.3041C412.273 56.8792 412.429 56.596 412.74 56.4544C413.052 56.2845 413.448 56.1712 413.93 56.1146C414.439 56.0863 415.034 56.0438 415.714 55.9872C416.394 55.9305 417.13 55.8456 417.923 55.7323C418.744 55.5907 419.608 55.4208 420.514 55.2225C421.42 54.9959 422.355 54.6844 423.318 54.2879C424.111 53.9481 424.861 53.5516 425.569 53.0985C426.306 52.6454 426.957 52.2206 427.523 51.8241C428.118 51.3993 428.628 51.0453 429.053 50.7621C429.506 50.4789 429.86 50.3373 430.115 50.3373C430.426 50.3373 430.625 50.5921 430.709 51.1019C430.823 51.5834 430.922 52.263 431.007 53.141C431.12 54.3304 431.233 55.888 431.347 57.8138C431.488 59.7396 431.644 61.8636 431.814 64.1859C432.012 66.5082 432.225 68.9437 432.451 71.4925C432.706 74.013 433.003 76.5052 433.343 78.9691C433.513 80.2718 433.754 81.3338 434.065 82.1551C434.377 82.9481 434.745 83.5711 435.17 84.0243C435.595 84.4774 436.062 84.7889 436.572 84.9588C437.11 85.1004 437.69 85.1712 438.313 85.1712C439.588 85.1712 440.749 85.0721 441.797 84.8739C442.873 84.6473 443.68 84.534 444.218 84.534C444.756 84.534 445.11 84.6332 445.28 84.8314C445.45 85.0296 445.535 85.2562 445.535 85.5111C445.535 85.766 445.45 86.0209 445.28 86.2757C445.11 86.5023 444.756 86.6864 444.218 86.828C443.425 86.9979 442.335 87.1678 440.947 87.3377C439.56 87.4793 437.917 87.6776 436.02 87.9325C434.49 88.159 433.173 88.4139 432.069 88.6971C430.993 88.952 430.143 89.0794 429.52 89.0794C428.897 89.0794 428.416 88.9378 428.076 88.6546C427.764 88.3714 427.523 87.8192 427.354 86.9979C427.184 86.1766 427.014 85.2845 426.844 84.3216C426.674 83.3304 426.504 82.3392 426.334 81.348C426.192 80.3568 426.037 79.3656 425.867 78.3744C425.725 77.3832 425.583 76.4486 425.442 75.5707C425.215 77.1 424.932 78.6859 424.592 80.3285C424.252 81.971 423.799 83.5853 423.233 85.1712C422.695 86.7289 422.029 88.2157 421.236 89.6317C420.472 91.0194 419.537 92.2372 418.433 93.285C417.328 94.3329 416.04 95.1683 414.567 95.7914C413.123 96.4144 411.466 96.7259 409.597 96.7259C406.538 96.7259 403.918 95.9188 401.738 94.3045C399.585 92.662 397.943 90.3397 396.81 87.3377C396.159 85.6952 395.635 83.9535 395.238 82.1126C394.842 80.2718 394.516 78.4735 394.261 76.7176C394.006 74.9618 393.794 73.3334 393.624 71.8324C393.482 70.3031 393.327 69.0287 393.157 68.0091C392.987 66.9613 392.76 66.0975 392.477 65.4178C392.222 64.7098 391.925 64.1576 391.585 63.7611C391.245 63.3646 390.863 63.0956 390.438 62.954C390.042 62.784 389.617 62.6991 389.164 62.6991C388.71 62.6991 388.215 62.7699 387.677 62.9115C387.167 63.0248 386.643 63.1664 386.105 63.3363C385.595 63.4779 385.1 63.6195 384.618 63.7611C384.137 63.8744 383.698 63.931 383.301 63.931C383.046 63.931 382.777 63.8602 382.494 63.7186C382.239 63.5487 382.112 63.2372 382.112 62.784C382.112 62.2743 382.338 61.9344 382.792 61.7645C383.245 61.5663 383.825 61.3539 384.533 61.1273C385.411 60.8724 386.445 60.4901 387.634 59.9803C388.852 59.4706 390.141 58.7626 391.5 57.8563C392.633 57.0917 393.567 56.327 394.304 55.5624C395.068 54.7694 395.691 54.0614 396.173 53.4383C396.683 52.787 397.093 52.263 397.405 51.8666C397.745 51.4417 398.042 51.2293 398.297 51.2293ZM453.989 3.39634C454.017 3.87778 454.045 4.65659 454.074 5.73277C454.13 6.78062 454.187 8.02671 454.244 9.47105C454.3 10.8871 454.357 12.4305 454.414 14.1014C454.47 15.744 454.527 17.3866 454.583 19.0292C454.64 20.6717 454.683 22.2577 454.711 23.787C454.768 25.3163 454.824 26.6615 454.881 27.8226C454.909 28.5589 454.952 29.6209 455.008 31.0086C455.065 32.368 455.136 33.9681 455.221 35.8089C455.334 37.6498 455.447 39.6888 455.561 41.9261C455.674 44.1351 455.801 46.4432 455.943 48.8504C456.084 51.2577 456.24 53.7215 456.41 56.242C456.58 58.7626 456.764 61.2406 456.962 63.6761C458.322 62.0052 459.724 60.6317 461.168 59.5555C462.612 58.4793 464.042 57.6439 465.458 57.0492C466.875 56.4261 468.248 56.0013 469.579 55.7748C470.91 55.5199 472.128 55.3924 473.232 55.3924C475.753 55.3924 478.047 55.8314 480.114 56.7093C482.182 57.5873 483.938 58.8192 485.382 60.4051C486.854 61.9627 487.987 63.8602 488.78 66.0975C489.602 68.3065 490.012 70.742 490.012 73.4042C490.012 76.0663 489.757 78.4168 489.248 80.4559C488.738 82.495 488.044 84.2792 487.166 85.8084C486.316 87.3377 485.311 88.6263 484.15 89.6742C482.989 90.722 481.757 91.5858 480.454 92.2655C479.151 92.9452 477.806 93.4691 476.418 93.8373C475.031 94.2054 473.671 94.4745 472.34 94.6444C470.924 94.8143 469.593 94.9276 468.347 94.9842C467.101 95.0126 465.827 95.055 464.524 95.1117C463.221 95.1683 461.833 95.2674 460.361 95.409C458.917 95.5506 457.288 95.7914 455.476 96.1312C454.258 96.3578 452.955 96.6976 451.567 97.1507C450.208 97.5755 448.877 98.0003 447.574 98.4251C446.271 98.85 445.068 99.2181 443.963 99.5296C442.859 99.8695 441.967 100.039 441.287 100.039C440.947 100.039 440.664 99.9686 440.438 99.827C440.211 99.6854 440.098 99.4305 440.098 99.0624C440.098 98.4676 440.579 98.0428 441.542 97.7879C443.185 97.3065 444.516 96.7684 445.535 96.1737C446.555 95.5506 447.348 94.8285 447.914 94.0072C448.48 93.1576 448.863 92.1805 449.061 91.076C449.288 89.9432 449.401 88.6122 449.401 87.0829C449.401 86.4315 449.373 85.1571 449.316 83.2596C449.259 81.3338 449.188 79.0116 449.104 76.2928C449.019 73.5741 448.919 70.5721 448.806 67.287C448.693 63.9735 448.565 60.5892 448.424 57.1341C448.282 53.6791 448.141 50.2523 447.999 46.8539C447.857 43.4554 447.716 40.3119 447.574 37.4232C447.461 34.5345 447.333 31.9999 447.192 29.8192C447.079 27.6385 446.965 26.0384 446.852 25.0189C446.71 23.433 446.456 22.1727 446.087 21.2381C445.719 20.2752 445.252 19.5531 444.686 19.0716C444.147 18.5619 443.51 18.2362 442.774 18.0946C442.038 17.9247 441.23 17.8397 440.353 17.8397C439.078 17.8397 438.044 17.8822 437.251 17.9671C436.43 18.0521 435.694 18.0946 435.042 18.0946C434.674 18.0946 434.377 18.0379 434.15 17.9247C433.924 17.7831 433.811 17.5707 433.811 17.2875C433.811 16.9759 433.924 16.7352 434.15 16.5653C434.349 16.3954 434.759 16.2679 435.382 16.183C436.232 16.0414 437.167 15.8714 438.186 15.6732C439.206 15.475 440.225 15.2059 441.245 14.8661C442.292 14.4979 443.326 14.0589 444.346 13.5492C445.365 13.0111 446.3 12.3456 447.149 11.5526C447.942 10.8163 448.608 10.0375 449.146 9.21616C449.712 8.39487 450.166 7.58775 450.505 6.79478C450.874 6.00181 451.171 5.25132 451.397 4.54331C451.624 3.8353 451.822 3.21226 451.992 2.67417C452.162 2.10777 452.332 1.6688 452.502 1.35728C452.672 1.01743 452.884 0.847511 453.139 0.847511C453.451 0.847511 453.649 1.07407 453.734 1.5272C453.847 1.98032 453.932 2.60337 453.989 3.39634ZM468.347 59.9378C467.073 59.9378 465.883 60.1502 464.779 60.5751C463.703 60.9715 462.697 61.4955 461.763 62.1468C460.856 62.7699 460.021 63.4779 459.256 64.2709C458.52 65.0638 457.869 65.8426 457.302 66.6073C457.614 70.4872 457.925 73.8998 458.237 76.8451C458.577 79.7621 458.959 82.2401 459.384 84.2792C459.639 85.4403 459.979 86.5306 460.403 87.5501C460.828 88.5697 461.38 89.4618 462.06 90.2264C462.74 90.9627 463.575 91.5575 464.566 92.0106C465.558 92.4354 466.733 92.6478 468.092 92.6478C470.471 92.6478 472.411 92.1664 473.912 91.2035C475.441 90.2406 476.645 88.9945 477.523 87.4652C478.401 85.9076 479.01 84.18 479.35 82.2826C479.689 80.3851 479.859 78.5018 479.859 76.6327C479.859 74.7352 479.675 72.8094 479.307 70.8553C478.967 68.8729 478.358 67.0746 477.48 65.4603C476.603 63.846 475.413 62.5292 473.912 61.5096C472.439 60.4618 470.584 59.9378 468.347 59.9378Z" fill="#8C1C13"/>
</g>
<defs>
<filter id="filter0_i_204_23" x="0" y="0.847511" width="490.012" height="112.92" filterUnits="userSpaceOnUse" color-interpolation-filters="sRGB">
<feFlood flood-opacity="0" result="BackgroundImageFix"/>
<feBlend mode="normal" in="SourceGraphic" in2="BackgroundImageFix" result="shape"/>
<feColorMatrix in="SourceAlpha" type="matrix" values="0 0 0 0 0 0 0 0 0 0 0 0 0 0 0 0 0 0 127 0" result="hardAlpha"/>
<feOffset dy="4"/>
<feGaussianBlur stdDeviation="2"/>
<feComposite in2="hardAlpha" operator="arithmetic" k2="-1" k3="1"/>
<feColorMatrix type="matrix" values="0 0 0 0 0 0 0 0 0 0 0 0 0 0 0 0 0 0 0.25 0"/>
<feBlend mode="normal" in2="shape" result="effect1_innerShadow_204_23"/>
</filter>
</defs>
</svg>
